<svg xmlns="http://www.w3.org/2000/svg" viewBox="0 0 400 400">
	<!-- White circle background -->
	<circle cx="200" cy="200" r="200" fill="white"/>
	
	<!-- Original icon centered in the circle -->
	<g transform="translate(52.375, 52.375)">
	  <path d="M273.125,24.5c0,5.522-4.478,10-10,10h-56.833v29.349c0,16.597-11.704,29.651-26.5,29.651h-22.5v23.715 c9,3.688,14,12.175,14,22.035v42.25h17V140c0-3.229,2.211-6.099,5.073-7.155c1.178-0.769,2.749-1.345,4.26-1.345h49.084 c4.143,0,7.583,3.607,7.583,7.75v16.5c0,4.143-3.44,7.75-7.583,7.75h-43.417V189c0,4.143-3.024,7.5-7.167,7.5h-24.833v74.75 c0,13.233-10.767,24-24,24s-24-10.767-24-24V196.5h-19V238c0,2.477-1.039,4.542-2.89,5.907c-1.297,1.073-2.795,1.593-4.61,1.593 H49.125c-1.325,0-2.568-0.222-3.648-0.825c-2.567-1.191-4.518-3.659-4.518-6.675c0-0.944,0.333-1.843,0.333-2.675V221.75 c0-4.143,3.69-7.25,7.833-7.25h40.167V189c0-4.143,3.69-7.5,7.833-7.5h26.167v-42.25c0-9.069,6-16.978,13-21.059V93.5h-21.833 c-14.796,0-27.167-13.055-27.167-29.651V34.5H32.125c-5.522,0-10-4.478-10-10s4.478-10,10-10H43.59C47.278,5.5,55.765,0,65.625,0 S83.972,5.5,87.66,14.5h9.965c5.522,0,9.667,4.228,9.667,9.75v39.599c0,5.951,3.935,9.651,7.167,9.651h32.166 c0.169,0,0.333,0.017,0.5,0.025c0.167-0.008,0.331-0.025,0.5-0.025h32.167c3.231,0,6.5-3.7,6.5-9.651V24.25 c0-5.522,4.811-9.75,10.333-9.75h66.5C268.647,14.5,273.125,18.978,273.125,24.5z" fill="#2C6B45"/>
	</g>
  </svg>